#!OML:ASF Y:\EmotionMaleHayes\Project 1\Capture day 1\Session 1\Male1.ASF
:FULLY-SPECIFIED
:DEGREES
3005
root -29.4207 17.0287 1.39999 427.132 443.277 -643.789
lowerback 5.65495 -1.54399 -8.58904
upperback 0.644991 -2.54592 1.18632
thorax -2.07441 -1.19494 6.24918
lowerneck -27.1106 3.14047 5.79733
upperneck 26.7591 2.247 -0.369086
head 13.6794 1.59499 -0.660661
rclavicle -2.3059e-014 -6.36111e-015
rhumerus -37.0223 9.65176 -88.8535
rradius 53.8362
rwrist -1.28213
rhand -15.6456 -30.0346
rfingers 7.12502
rthumb 10.542 -59.7502
lclavicle -2.3059e-014 -6.36111e-015
lhumerus -35.6753 -25.6509 85.821
lradius 43.2104
lwrist -33.1963
lhand 9.13348 -27.0807
lfingers 7.12502
lthumb 34.304 -0.364897
rfemur 2.79316 7.20972 12.0446
rtibia 17.8171
rfoot -15.3402 2.26162
rtoes 4.53573
lfemur 16.467 2.54082 -18.1888
ltibia 8.65739
lfoot -17.0206 17.2882
ltoes -10.0667
3006
root -29.4347 17.0463 1.37095 426.426 443.297 -644.574
lowerback 5.49093 -1.52763 -8.84928
upperback 0.566513 -2.52947 1.1683
thorax -2.057 -1.18327 6.37193
lowerneck -27.3137 3.05434 5.63308
upperneck 26.6282 2.17862 -0.388178
head 13.6589 1.53981 -0.653649
rclavicle 3.77691e-015 1.27222e-014
rhumerus -37.9405 6.95544 -88.0704
rradius 53.7427
rwrist -1.807
rhand -17.2095 -31.0826
rfingers 7.12502
rthumb 9.03318 -60.8692
lclavicle 3.77691e-015 1.27222e-014
lhumerus -35.3182 -26.0627 85.1947
lradius 43.5203
lwrist -32.5879
lhand 9.18422 -25.6838
lfingers 7.12502
lthumb 34.3522 1.02104
rfemur 2.75828 7.55567 12.0942
rtibia 17.6682
rfoot -15.3263 2.04835
rtoes 4.72207
lfemur 16.6661 2.23517 -18.4059
ltibia 8.02347
lfoot -17.1621 17.5061
ltoes -8.58885
3007
root -29.457 17.0564 1.32685 423.524 443.316 -647.666
lowerback 5.35277 -1.44042 -8.84732
upperback 0.441192 -2.40662 1.18866
thorax -2.13145 -1.11459 6.38308
lowerneck -27.6672 2.97777 5.35767
upperneck 26.5818 2.12553 -0.292424
head 13.7016 1.49767 -0.57765
rclavicle 9.74045e-015 2.22639e-014
rhumerus -38.3548 4.95697 -87.2536
rradius 53.1341
rwrist -3.04889
rhand -18.5286 -32.4577
rfingers 7.12502
rthumb 7.76019 -62.2953
lclavicle 9.74045e-015 2.22639e-014
lhumerus -34.9812 -26.5129 84.6132
lradius 44.0113
lwrist -31.6812
lhand 9.43695 -25.264
lfingers 7.12502
lthumb 34.5921 1.38637
rfemur 2.45971 7.88432 12.153
rtibia 17.5963
rfoot -15.2198 1.97949
rtoes 4.90566
lfemur 16.7707 2.10085 -18.5704
ltibia 7.36822
lfoot -17.458 17.7425
ltoes -6.23263
3008
root -29.4848 17.0662 1.28151 421.077 443.382 -650.166
lowerback 5.42991 -1.36164 -8.70758
upperback 0.356396 -2.3064 1.12045
thorax -2.28945 -1.05558 6.23107
lowerneck -27.595 2.91525 5.03275
upperneck 26.1863 2.08751 -0.0195665
head 13.5113 1.47894 -0.42592
rclavicle 2.80286e-014 1.82882e-014
rhumerus -38.8009 2.27674 -86.4126
rradius 52.2789
rwrist -4.02636
rhand -19.6434 -33.5294
rfingers 7.12502
rthumb 6.6841 -63.4039
lclavicle 2.80286e-014 1.82882e-014
lhumerus -34.4393 -26.6934 83.7849
lradius 44.2743
lwrist -30.9513
lhand 9.35235 -25.7508
lfingers 7.12502
lthumb 34.5118 0.917876
rfemur 2.27191 8.06039 12.1986
rtibia 17.5514
rfoot -15.0767 2.01864
rtoes 5.96484
lfemur 16.9295 2.24758 -18.5079
ltibia 6.84934
lfoot -17.6084 17.6927
ltoes -4.35448
3009
root -29.5109 17.0742 1.24054 418.827 443.477 -652.457
lowerback 5.41468 -1.33231 -8.42156
upperback 0.351631 -2.25314 0.924828
thorax -2.31373 -1.03089 5.85882
lowerneck -27.6716 2.93576 5.08839
upperneck 25.7793 2.05778 0.0420521
head 13.3564 1.47086 -0.418498
rclavicle 3.08116e-014 -1.59028e-015
rhumerus -39.1594 0.510287 -86.013
rradius 51.7079
rwrist -6.22602
rhand -21.0953 -35.3136
rfingers 7.12502
rthumb 5.28232 -65.2278
lclavicle 3.08116e-014 -1.59028e-015
lhumerus -33.8176 -26.8018 82.6557
lradius 44.6688
lwrist -30.0454
lhand 9.05725 -25.7649
lfingers 7.12502
lthumb 34.2316 0.967168
rfemur 2.05887 8.05562 12.2378
rtibia 17.5955
rfoot -14.9155 2.24176
rtoes 7.09721
lfemur 17.1099 2.61992 -18.2643
ltibia 6.33658
lfoot -17.1768 17.6303
ltoes -5.36544
3010
root -29.5365 17.0749 1.19966 417.144 443.236 -654.329
lowerback 5.29451 -1.31661 -8.07509
upperback 0.286726 -2.21523 0.359883
thorax -2.35555 -1.01239 5.06439
lowerneck -27.8867 2.98432 5.25456
upperneck 25.4875 1.92583 0.378008
head 13.2748 1.47277 -0.338118
rclavicle 1.26228e-014 2.94201e-014
rhumerus -39.6911 -1.44655 -85.9471
rradius 51.2238
rwrist -8.44137
rhand -21.7925 -36.7817
rfingers 7.12502
rthumb 4.60914 -66.7115
lclavicle 1.26228e-014 2.94201e-014
lhumerus -33.4063 -27.3407 81.1915
lradius 45.4398
lwrist -28.5495
lhand 8.64982 -25.1556
lfingers 7.12502
lthumb 33.8446 1.66248
rfemur 1.57989 7.87182 11.8081
rtibia 17.7677
rfoot -14.7697 2.64255
rtoes 6.93276
lfemur 17.1162 3.00506 -18.4771
ltibia 5.84734
lfoot -16.7532 17.8121
ltoes -6.81211
3011
root -29.5661 17.0704 1.16033 415.119 442.947 -656.527
lowerback 5.58364 -1.33107 -7.33322
upperback -0.016346 -2.24757 -0.504156
thorax -2.89157 -1.00926 3.76497
lowerneck -27.8613 3.02085 5.45545
upperneck 25.24 1.66985 1.0917
head 13.1623 1.48369 -0.140503
rclavicle -6.36111e-015 -2.3059e-014
rhumerus -40.6666 -3.23131 -86.2918
rradius 50.6209
rwrist -10.5417
rhand -21.2589 -36.8233
rfingers 7.12502
rthumb 5.12438 -66.7414
lclavicle -6.36111e-015 -2.3059e-014
lhumerus -33.3626 -28.0253 79.413
lradius 46.1872
lwrist -26.9711
lhand 7.6871 -24.6434
lfingers 7.12502
lthumb 32.9295 2.37171
rfemur 1.02604 7.57204 11.3379
rtibia 18.0578
rfoot -14.6795 3.25383
rtoes 6.55773
lfemur 17.1075 3.28672 -18.7426
ltibia 5.44606
lfoot -16.9854 17.9095
ltoes -5.61123
3012
root -29.5971 17.061 1.12401 413.936 442.617 -657.743
lowerback 5.553 -1.33905 -6.93301
upperback 0.0705614 -2.23758 -1.23185
thorax -2.82852 -1.01411 2.78287
lowerneck -28.2487 3.12219 5.78317
upperneck 24.7949 1.50588 1.51681
head 13.0558 1.49631 -0.0576697
rclavicle 6.11263e-015 3.97569e-016
rhumerus -41.0388 -4.11385 -86.9513
rradius 50.4707
rwrist -14.8084
rhand -23.0454 -39.6932
rfingers 7.12502
rthumb 3.39928 -69.6459
lclavicle 6.11263e-015 3.97569e-016
lhumerus -32.5876 -28.3345 77.5414
lradius 46.7554
lwrist -25.6022
lhand 6.19573 -23.9846
lfingers 7.12502
lthumb 31.5098 3.3184
rfemur 0.628961 7.38039 10.8419
rtibia 18.3431
rfoot -14.6712 3.7686
rtoes 6.54794
lfemur 17.1852 3.57434 -19.04
ltibia 5.11118
lfoot -17.3232 17.7663
ltoes -4.41945
3013
root -29.6284 17.048 1.08844 413.983 442.167 -657.702
lowerback 5.52713 -0.763881 -10.2079
upperback 0.243506 -1.62668 0.646295
thorax -2.55304 -0.681975 6.543
lowerneck -28.8626 2.71466 4.18048
upperneck 24.3762 1.97845 0.199298
head 12.9887 1.3305 -0.22283
rclavicle -7.10655e-015 1.19271e-014
rhumerus -41.0902 -3.40389 -83.3807
rradius 50.2372
rwrist -18.9317
rhand -23.5055 -41.2937
rfingers 7.12502
rthumb 2.95493 -71.253
lclavicle -7.10655e-015 1.19271e-014
lhumerus -31.3629 -26.5827 79.7993
lradius 46.7358
lwrist -25.1503
lhand 4.54517 -23.6014
lfingers 7.12502
lthumb 29.9361 3.99745
rfemur 0.274559 7.25363 10.1326
rtibia 18.6078
rfoot -14.7644 4.13712
rtoes 6.55259
lfemur 17.1045 4.1186 -19.4224
ltibia 5.04566
lfoot -17.1687 17.5175
ltoes -5.63395
3014
root -29.6587 17.0365 1.0521 412.507 441.963 -659.144
lowerback 5.68566 -0.586073 -10.4389
upperback 0.311403 -1.41968 0.543575
thorax -2.60689 -0.575168 6.55403
lowerneck -29.1629 2.65778 4.1033
upperneck 24.0154 1.938 0.0981617
head 12.8971 1.28207 -0.257519
rclavicle 2.98177e-015 -1.43125e-014
rhumerus -41.3611 -4.34527 -82.6155
rradius 49.4513
rwrist -21.2497
rhand -23.31 -42.0553
rfingers 7.12502
rthumb 3.1437 -72.0119
lclavicle 2.98177e-015 -1.43125e-014
lhumerus -30.5648 -26.6537 79.0259
lradius 47.1977
lwrist -23.8279
lhand 2.99919 -23.6556
lfingers 7.12502
lthumb 28.4598 4.19974
rfemur -0.00353955 7.02158 9.77957
rtibia 18.8822
rfoot -14.9642 4.55226
rtoes 5.13789
lfemur 17.0776 4.62422 -19.4426
ltibia 5.02766
lfoot -16.793 17.3936
ltoes -7.03357
3015
root -29.6843 17.0287 1.01461 410.721 441.761 -660.832
lowerback 5.82262 -0.437647 -10.6495
upperback 0.424489 -1.24468 0.485341
thorax -2.59485 -0.489869 6.60078
lowerneck -29.3894 2.63086 3.92488
upperneck 23.5143 1.94547 0.141104
head 12.7336 1.265 -0.211717
rclavicle -2.2413e-014 2.38542e-014
rhumerus -41.578 -5.11972 -81.7765
rradius 48.4424
rwrist -22.354
rhand -22.8373 -42.5125
rfingers 7.12502
rthumb 3.60023 -72.4618
lclavicle -2.2413e-014 2.38542e-014
lhumerus -29.8208 -26.5952 78.3283
lradius 47.6682
lwrist -22.4488
lhand 1.30535 -23.7278
lfingers 7.12502
lthumb 26.8401 4.38729
rfemur -0.192324 6.6417 9.44799
rtibia 19.1517
rfoot -15.194 5.00648
rtoes 2.71577
lfemur 17.215 4.84057 -19.6176
ltibia 4.86701
lfoot -16.6479 17.4744
ltoes -7.47992
